<svg xmlns="http://www.w3.org/2000/svg" version="1.1" xmlns:xlink="http://www.w3.org/1999/xlink" xmlns:svgjs="http://svgjs.com/svgjs" width="1920" height="1080" preserveAspectRatio="none" viewBox="0 0 1920 1080">
    <g mask="url(&quot;#SvgjsMask1075&quot;)" fill="none">
        <rect width="1920" height="1080" x="0" y="0" fill="rgba(30, 215, 96, 1)"></rect>
        <path d="M675.51,277.183C743.394,282.103,815.704,262.632,851.778,204.916C889.672,144.288,881.005,67.06,845.7,4.889C809.914,-58.13,747.961,-107.197,675.51,-105.487C605.394,-103.832,548.832,-50.721,518.688,12.607C492.466,67.694,507.454,129.732,538.562,182.215C568.921,233.434,616.126,272.879,675.51,277.183" fill="rgba(13, 89, 22, 0.38)" class="triangle-float3"></path>
        <path d="M1354.52,1297.939C1452.825,1296.578,1544.795,1245.34,1592.166,1159.191C1637.956,1075.917,1625.17,975.456,1576.838,893.631C1529.411,813.339,1447.768,757.858,1354.52,756.862C1259.579,755.848,1173.237,807.719,1123.823,888.793C1072.176,973.531,1056.453,1079.492,1105.194,1165.935C1154.697,1253.73,1253.74,1299.335,1354.52,1297.939" fill="rgba(13, 89, 22, 0.38)" class="triangle-float1"></path>
        <path d="M1321.293,738.826C1384.138,735.846,1438.944,701.62,1472.351,648.306C1508.283,590.962,1526.567,520.614,1495.79,460.346C1462.459,395.077,1394.58,352.311,1321.293,352.504C1248.314,352.696,1184.611,397.911,1148.381,461.262C1112.427,524.131,1104.907,602.441,1143.202,663.913C1179.699,722.5,1252.345,742.095,1321.293,738.826" fill="rgba(13, 89, 22, 0.38)" class="triangle-float1"></path>
        <path d="M1109.61,227.991C1154.126,230.009,1199.097,213.948,1223.2,176.467C1249.265,135.937,1256.482,81.582,1229.393,41.729C1204.473,5.067,1153.887,7.194,1109.61,9.353C1070.377,11.266,1029.086,19.057,1008.486,52.502C987.036,87.328,992.142,131.477,1012.563,166.916C1033.016,202.411,1068.686,226.135,1109.61,227.991" fill="rgba(13, 89, 22, 0.38)" class="triangle-float3"></path>
        <path d="M330.743,610.048C396.277,611.041,462.587,586.167,495.588,529.54C528.788,472.571,520.697,400.748,485.045,345.281C452.136,294.082,391.592,271.76,330.743,273.079C272.409,274.344,218.417,302.177,187.61,351.729C154.891,404.357,144.292,470.47,174.326,524.674C205.182,580.361,267.086,609.084,330.743,610.048" fill="rgba(13, 89, 22, 0.38)" class="triangle-float3"></path>
        <path d="M308.984,657.338C352.153,660.337,390.405,631.119,411.99,593.614C433.522,556.203,438.438,509.195,415.171,472.837C393.307,438.671,349.547,432.506,308.984,432.652C268.763,432.797,223.383,438.292,204.114,473.597C185.304,508.059,208.641,546.743,228.102,580.841C247.817,615.384,269.307,654.582,308.984,657.338" fill="rgba(13, 89, 22, 0.38)" class="triangle-float1"></path>
    </g>
    <defs>
        <mask id="SvgjsMask1075">
            <rect width="1920" height="1080" fill="#ffffff"></rect>
        </mask>
        <style>
            @keyframes float1 {
                0%{transform: translate(0, 0)}
                50%{transform: translate(-20px, -40px)}
                100%{transform: translate(0, 0)}
            }

            .triangle-float1 {
                animation: float1 15s infinite;
            }

            @keyframes float2 {
                0%{transform: translate(0, 0)}
                50%{transform: translate(-50px, -50px)}
                100%{transform: translate(0, 0)}
            }

            .triangle-float2 {
                animation: float2 4s infinite;
            }

            @keyframes float3 {
                0%{transform: translate(0, 0)}
                50%{transform: translate(0, -100px)}
                100%{transform: translate(0, 0)}
            }

            .triangle-float3 {
                animation: float3 15s infinite;
            }
        </style>
    </defs>
</svg>